<?xml version="1.0" encoding="iso-8859-1"?>
<!-- Generator: Adobe Illustrator 19.0.0, SVG Export Plug-In . SVG Version: 6.00 Build 0)  -->
<svg version="1.1" id="Layer_1" xmlns="http://www.w3.org/2000/svg" xmlns:xlink="http://www.w3.org/1999/xlink" x="0px" y="0px"
	 viewBox="0 0 297 297" style="enable-background:new 0 0 297 297;" xml:space="preserve">
<g>
	<g>
		<g>
			<g>
				<g>
					<g>
						<g>
							<circle style="fill:#424949;" cx="148.5" cy="148.5" r="148.5"/>
						</g>
					</g>
				</g>
			</g>
		</g>
		<g>
			<g>
				<g>
					<g>
						<g>
							<circle style="fill:#424949;" cx="148.5" cy="148.5" r="148.5"/>
						</g>
					</g>
				</g>
			</g>
		</g>
	</g>
	<path style="fill:#262C30;" d="M296.753,140.003L239.24,82.49L57.75,231l63.495,63.495c8.836,1.639,17.944,2.505,27.255,2.505
		c82.014,0,148.5-66.486,148.5-148.5C297,145.647,296.911,142.816,296.753,140.003z" fill="#424949"/>
	<g>
		<polygon style="fill:#FFA800;" points="239.25,231 57.75,231 57.75,82.5 148.5,33 239.25,82.5 		"/>
	</g>
	<g>
		<polygon style="fill:#E59405;" points="239.25,82.5 148.667,33.091 148.667,231 239.25,231 		"/>
	</g>
	<g>
		<polygon style="fill:#F0DEB4;" points="219.045,231 77.955,231 77.955,99.062 148.5,60.583 219.045,99.062 		"/>
	</g>
	<g>
		<polygon style="fill:#CEB78A;" points="219.045,99.062 148.667,60.674 148.667,231 219.045,231 		"/>
	</g>
	<g>
		<g>
			<rect x="155.875" y="181.5" style="fill:#D36818;" width="49.5" height="49.5"/>
		</g>
		<g>
			<rect x="91.625" y="181.5" style="fill:#E67E22;" width="49.5" height="49.5"/>
		</g>
	</g>
	<g>
		<rect x="123.75" y="132" style="fill:#C0392B;" width="49.5" height="49.5"/>
	</g>
	<g>
		<rect x="148.667" y="132" style="fill:#A82720;" width="24.583" height="49.5"/>
	</g>
</g>
<g>
</g>
<g>
</g>
<g>
</g>
<g>
</g>
<g>
</g>
<g>
</g>
<g>
</g>
<g>
</g>
<g>
</g>
<g>
</g>
<g>
</g>
<g>
</g>
<g>
</g>
<g>
</g>
<g>
</g>
</svg>
